<svg xmlns="http://www.w3.org/2000/svg" xmlns:xlink="http://www.w3.org/1999/xlink" width="1440" height="1074" viewBox="0 0 1440 1074">
  <rect width="100%" height="100%" fill="#ffffff" />
  <text x="24" y="28" font-family="Inter, system-ui, sans-serif" font-size="20" font-weight="600" fill="#0f172a">Global search — assets and full-text doc hits</text>
  <text x="24" y="46" font-family="Inter, system-ui, sans-serif" font-size="14" fill="#6b7280">The header search drops down with asset matches plus full-text hits inside every workspace&apos;s .md files.</text>
  <image href="03-search-results.png" x="0" y="56" width="1440" height="900" preserveAspectRatio="xMidYMin meet" />
  <g transform="translate(0, 56)">
  <rect x="430" y="95" width="320" height="36" fill="none" stroke="#ef4444" stroke-width="3" rx="4" ry="4" />
  <rect x="432" y="175" width="462" height="110" fill="none" stroke="#ef4444" stroke-width="3" rx="4" ry="4" />
  <rect x="432" y="285" width="462" height="215" fill="none" stroke="#ef4444" stroke-width="3" rx="4" ry="4" />
  
  <circle cx="588" cy="112" r="20" fill="white" />
  <circle cx="588" cy="112" r="18" fill="#ef4444" />
  <text x="588" y="118" font-family="Inter, system-ui, sans-serif" font-size="20" font-weight="700" fill="white" text-anchor="middle">1</text>
  <circle cx="588" cy="220" r="20" fill="white" />
  <circle cx="588" cy="220" r="18" fill="#ef4444" />
  <text x="588" y="226" font-family="Inter, system-ui, sans-serif" font-size="20" font-weight="700" fill="white" text-anchor="middle">2</text>
  <circle cx="588" cy="380" r="20" fill="white" />
  <circle cx="588" cy="380" r="18" fill="#ef4444" />
  <text x="588" y="386" font-family="Inter, system-ui, sans-serif" font-size="20" font-weight="700" fill="white" text-anchor="middle">3</text>
  </g>
  <rect x="0" y="956" width="1440" height="118" fill="#f9fafb" stroke="#e5e7eb" />
  
  <circle cx="38" cy="988" r="13" fill="#ef4444" />
  <text x="38" y="993.5" font-family="Inter, system-ui, sans-serif" font-size="14" font-weight="700" fill="white" text-anchor="middle">1</text>
  <text x="62" y="994" font-family="Inter, system-ui, sans-serif" font-size="15" fill="#1f2937">Multi-term query — typing redis matches across asset metadata + docs simultaneously.</text>
  <circle cx="38" cy="1014" r="13" fill="#ef4444" />
  <text x="38" y="1019.5" font-family="Inter, system-ui, sans-serif" font-size="14" font-weight="700" fill="white" text-anchor="middle">2</text>
  <text x="62" y="1020" font-family="Inter, system-ui, sans-serif" font-size="15" fill="#1f2937">Asset matches — id / name / description / tags / language / owner / repo url.</text>
  <circle cx="38" cy="1040" r="13" fill="#ef4444" />
  <text x="38" y="1045.5" font-family="Inter, system-ui, sans-serif" font-size="14" font-weight="700" fill="white" text-anchor="middle">3</text>
  <text x="62" y="1046" font-family="Inter, system-ui, sans-serif" font-size="15" fill="#1f2937">Doc hits — full-text scan of every workspace&apos;s markdown with line-number snippets and the matching term highlighted.</text>
</svg>
